# xmcd
#
# Track frame offsets: 
#        150
#        11166
#        19444
#        29306
#        38880
#        48298
#        57127
#        66915
#        76483
#        90454
#        103589
#        115160
#        123644
#        138613
#        154839
#        168570
#        179068
#        188875
#        202210
#        214548
#        223619
#        235180
#        250449
#        260669
#
# Disc length: 3657 seconds
#
# Revision: 1
# Processed by: cddbd v1.5.2PL0 Copyright (c) Steve Scherf et al.
# Submitted via: ExactAudioCopyFreeDBPlugin 1.0
#
DISCID=6a0e4718
DTITLE=Barbara Lynn - A Good Woman:  The Complete Tribe and Jet Stream S
DTITLE=ingles, 1966-1979
DYEAR=2011
DGENRE=Rhythm and Blues
TTITLE0=I'm a Good Woman
TTITLE1=Running Back
TTITLE2=You Left the Water Running
TTITLE3=Until I'm Free
TTITLE4=Watch the One (That Brings the Bad News)
TTITLE5=Club a Go-Go
TTITLE6=New Kind of Love
TTITLE7=I Don't Want a Playboy
TTITLE8=Until Then, I'll Suffer
TTITLE9=Take Your Love and Run
TTITLE10=You Better Quit It
TTITLE11=Nice and Easy
TTITLE12=Movin' on a Groove
TTITLE13=Disco Music
TTITLE14=Takin' His Love Away (Ain't Gonna Be Easy)
TTITLE15=How You Think I Can Live with Somebody (After What I've Been 
TTITLE15=Used To)
TTITLE16=Take Your Time
TTITLE17=Give Him His Freedom
TTITLE18=Sugar Coated Love
TTITLE19=I Warned You Baby
TTITLE20=I'm So Lonesome I Could Cry
TTITLE21=You Finally Got Your Good Thing Back
TTITLE22=Call My Bluff Baby
TTITLE23=Then You Can Tell Me Goodbye
EXTD=
EXTT0=
EXTT1=
EXTT2=
EXTT3=
EXTT4=
EXTT5=
EXTT6=
EXTT7=
EXTT8=
EXTT9=
EXTT10=
EXTT11=
EXTT12=
EXTT13=
EXTT14=
EXTT15=
EXTT16=
EXTT17=
EXTT18=
EXTT19=
EXTT20=
EXTT21=
EXTT22=
EXTT23=
PLAYORDER=
